<svg xmlns="http://www.w3.org/2000/svg" height="800" width="1200" version="1.0" viewBox="-22.50015 -29.4655 195.0013 176.793"><path d="M0 84.626l149.997-.002M0 102.467h150" stroke-width=".709" stroke="#C39122" fill="none"/><path d="M103.593 110.788c0-1.293-.011-1.455-.549-1.522l-.299-.041c-.08-.094-.08-.31.011-.377a25.433 25.433 0 012.634-.122c.893 0 1.673.135 2.176.458.583.364 1.007.997 1.007 1.967 0 1.241-.812 1.86-1.374 2.129-.068.041-.045.148 0 .229.916 1.819 1.489 2.964 2.027 3.49.322.323.478.31.614.323.058.054.005.364.005.364l-1.954.003s-.302-.448-1-1.7c-.31-.567-.63-1.308-.905-1.834-.206-.403-.333-.458-.71-.458-.344 0-.356.015-.356.297v1.725c0 1.428.102 1.468.642 1.549l.252.041c.08.094.068.336-.023.39a29.772 29.772 0 00-3.069 0c-.091-.054-.125-.296-.023-.39l.252-.041c.539-.081.642-.122.642-1.549zm1.328 1.941c0 .432 0 .458.551.458 1.121 0 1.637-.646 1.637-1.926 0-1.065-.585-1.994-1.58-1.994-.596 0-.607.041-.607.659v2.803zm-88.375-2.845c0-.567-.011-.593-.309-.593h-.642c-1.054 0-1.363.148-1.787 1.239-.08.081-.322.041-.367-.094.195-.728.367-1.562.447-2.035.023-.041.068-.054.127-.054.045 0 .091.013.114.054.058.338.218.351.997.351h4.671c.562 0 .734-.041.871-.351.045-.026.093-.054.138-.054.068 0 .125.028.149.068-.115.552-.206 1.71-.172 2.142-.057.107-.252.135-.356.041-.148-1.051-.365-1.307-1.592-1.307h-.653c-.297 0-.309.026-.309.593v5.821c0 1.428.102 1.468.642 1.536l.411.054c.081.094.07.336-.023.391a38.975 38.975 0 00-1.683-.041c-.503 0-1.043.013-1.775.041-.091-.055-.102-.325-.023-.391l.481-.067c.538-.055.642-.096.642-1.523v-5.821zm8.671 3.449c-.585 0-.619.028-.619.391v1.98c0 1.429.104 1.47.642 1.536l.344.054c.08.094.068.338-.024.391a33.715 33.715 0 00-1.614-.041c-.503 0-1.018.013-1.454.041-.091-.054-.104-.297-.023-.391l.159-.026c.539-.094.642-.135.642-1.564v-5.012c0-1.428-.102-1.468-.642-1.549l-.252-.041c-.08-.067-.068-.336.024-.391a28.425 28.425 0 003.012 0c.091.055.102.325.023.391l-.195.041c-.538.081-.642.122-.642 1.549v1.631c0 .377.034.404.619.404h2.68c.583 0 .619-.028.619-.404v-1.631c0-1.428-.104-1.468-.642-1.549l-.252-.041c-.081-.067-.07-.336.023-.391.526.028 1.041.041 1.546.041.503 0 1.018-.013 1.476-.041.093.055.104.325.023.391l-.206.041c-.538.081-.64.122-.64 1.549v5.012c0 1.429.102 1.47.64 1.549l.252.041c.081.094.07.338-.023.391a27.586 27.586 0 00-1.522-.041c-.528 0-1.043.013-1.546.041-.093-.054-.104-.297-.023-.391l.252-.041c.538-.08.642-.12.642-1.549v-1.98c0-.364-.036-.391-.619-.391zm8.444-2.641c0-1.428-.102-1.468-.642-1.562l-.184-.028c-.08-.094-.068-.336.024-.39.434.026.973.039 1.476.039h2.188c.732 0 1.397-.013 1.546-.039.045.229.114 1.293.182 1.873-.045.107-.274.135-.365.054-.184-.781-.356-1.119-.721-1.226-.265-.094-.607-.122-.916-.122h-.768c-.492 0-.492.028-.492.796v2.277c0 .351.011.364.274.364h.551c.996 0 1.19-.013 1.27-.593l.081-.458c.091-.094.309-.094.365.013-.011.364-.034.849-.034 1.348 0 .512.023.983.034 1.415-.057.094-.274.094-.365.013l-.081-.539c-.08-.565-.274-.593-1.27-.593h-.551c-.263 0-.274.028-.274.364v1.712c0 .687.023 1.171.195 1.402.136.188.331.296 1.293.296 1.455.028 1.707-.364 2.108-1.455.102-.094.297-.054.365.081-.068.565-.32 1.59-.481 1.954-.503-.028-1.488-.041-2.828-.041h-1.306c-.503 0-1.202.013-1.718.041-.091-.054-.102-.297-.023-.391l.424-.054c.539-.067.642-.107.642-1.536v-5.015zm14.019 2.641c-.585 0-.619.028-.619.391v1.98c0 1.429.104 1.47.642 1.536l.344.054c.08.094.068.338-.024.391a33.715 33.715 0 00-1.614-.041c-.503 0-1.018.013-1.454.041-.091-.054-.102-.297-.023-.391l.159-.026c.539-.094.642-.135.642-1.564v-5.012c0-1.428-.102-1.468-.642-1.549l-.252-.041c-.08-.067-.068-.336.024-.391a28.425 28.425 0 003.012 0c.091.055.102.325.023.391l-.195.041c-.538.081-.642.122-.642 1.549v1.631c0 .377.034.404.619.404h2.68c.583 0 .619-.028.619-.404v-1.631c0-1.428-.104-1.468-.642-1.549l-.252-.041c-.081-.067-.07-.336.023-.391a29.12 29.12 0 001.546.041c.503 0 1.018-.013 1.476-.041.093.055.104.325.023.391l-.206.041c-.538.081-.64.122-.64 1.549v5.012c0 1.429.102 1.47.64 1.549l.253.041c.08.094.068.338-.024.391a27.586 27.586 0 00-1.522-.041c-.528 0-1.043.013-1.546.041-.093-.054-.104-.297-.023-.391l.252-.041c.538-.08.642-.12.642-1.549v-1.98c0-.364-.036-.391-.619-.391zm15.636-.108c0 2.655-1.718 4.637-4.031 4.637-2.587 0-4.077-2.144-4.077-4.541 0-2.75 1.696-4.785 4.099-4.785 2.647 0 4.009 2.238 4.009 4.689m-6.55-.296c0 1.86.676 4.393 2.634 4.393 1.306 0 2.358-1.147 2.358-3.854 0-2.035-.778-4.393-2.599-4.393-1.144 0-2.393.985-2.393 3.854m11.012-3.045c0-.567-.011-.593-.309-.593h-.642c-1.054 0-1.363.148-1.787 1.239-.08.081-.322.041-.367-.094.195-.728.367-1.562.447-2.035.023-.041.068-.054.127-.054.045 0 .091.013.114.054.058.338.218.351.997.351h4.671c.562 0 .734-.041.871-.351.045-.026.093-.054.138-.054.068 0 .125.028.148.068-.114.552-.205 1.71-.171 2.142-.057.107-.252.135-.356.041-.148-1.051-.365-1.307-1.592-1.307h-.653c-.297 0-.309.026-.309.593v5.821c0 1.428.102 1.468.642 1.536l.411.054c.081.094.07.336-.023.391a38.975 38.975 0 00-1.683-.041c-.503 0-1.043.013-1.775.041-.091-.055-.102-.325-.023-.391l.481-.067c.539-.055.642-.096.642-1.523v-5.821zm7.404.808c0-1.428-.104-1.468-.642-1.562l-.184-.028c-.08-.094-.068-.336.023-.39.435.026.974.039 1.478.039h2.188c.732 0 1.397-.013 1.545-.039.047.229.115 1.293.184 1.873-.045.107-.274.135-.365.054-.184-.781-.356-1.119-.721-1.226-.265-.094-.607-.122-.918-.122h-.767c-.492 0-.492.028-.492.796v2.277c0 .351.011.364.274.364h.551c.996 0 1.19-.013 1.27-.593l.081-.458c.091-.094.309-.094.365.013-.011.364-.034.849-.034 1.348 0 .512.023.983.034 1.415-.057.094-.274.094-.365.013l-.081-.539c-.08-.565-.274-.593-1.27-.593h-.551c-.263 0-.274.028-.274.364v1.712c0 .687.023 1.171.195 1.402.136.188.331.296 1.293.296 1.455.028 1.707-.364 2.108-1.455.102-.094.297-.054.365.081-.068.565-.32 1.59-.481 1.954-.503-.028-1.488-.041-2.828-.041h-1.306c-.503 0-1.202.013-1.718.041-.091-.054-.102-.297-.023-.391l.424-.054c.538-.067.642-.107.642-1.536zm9.59 4.73c0 .674.023 1.158.195 1.387.138.19.322.297 1.236.297 1.272 0 1.455-.067 1.981-1.455.115-.068.297-.028.356.081-.091.565-.344 1.59-.481 1.954-.481-.028-1.467-.041-2.748-.041h-1.192c-.583 0-1.156.013-1.637.041-.091-.054-.125-.323-.023-.391l.343-.067c.539-.081.642-.122.642-1.524v-5.012c0-1.402-.102-1.442-.642-1.536l-.32-.054c-.08-.068-.08-.336.023-.391.573.028 1.088.041 1.614.041.503 0 1.02-.013 1.523-.041.102.055.114.323.023.391l-.252.054c-.538.094-.642.135-.642 1.536v4.73zm15.286.822c0 .471.057.822.274.944.034.054.034.161-.011.201-.125 0-.331.041-.549.109-.711.188-1.569.364-2.222.364-1.374 0-2.668-.432-3.528-1.483-.676-.822-1.007-1.954-1.007-3.086s.331-2.29 1.052-3.167c.814-1.01 2.061-1.59 3.654-1.59.538 0 1.122.109 1.523.203.261.067.594.122.732.122.011.404.091 1.091.148 2.142-.057.135-.309.148-.365.026-.253-1.306-1.065-1.954-2.199-1.954-2.016 0-2.988 1.712-2.988 4.002 0 1.078.206 2.236.823 3.099a2.73 2.73 0 002.21 1.147c.549 0 .882-.109 1.02-.31.068-.122.102-.364.102-.849v-.486c0-.955-.011-1.036-.78-1.186l-.411-.08c-.08-.094-.08-.323.011-.391.447.028.996.041 1.787.041.515 0 .905-.013 1.397-.041.114.068.125.297.023.391l-.206.041c-.424.067-.492.188-.492 1.01v.781zm19.207-3.019c0 2.655-1.717 4.637-4.031 4.637-2.587 0-4.077-2.144-4.077-4.541 0-2.75 1.696-4.785 4.099-4.785 2.646 0 4.009 2.238 4.009 4.689m-6.55-.296c0 1.86.676 4.393 2.634 4.393 1.304 0 2.358-1.147 2.358-3.854 0-2.035-.778-4.393-2.599-4.393-1.144 0-2.393.985-2.393 3.854m9.35-2.237c0-1.428-.102-1.468-.642-1.562l-.193-.041c-.081-.094-.07-.323.023-.377a29.92 29.92 0 003.011 0c.091.054.102.283.023.377l-.252.041c-.539.094-.642.135-.642 1.562v3.086c0 1.86.481 3.422 2.072 3.422 1.501 0 2.119-1.333 2.119-3.381v-1.684c0-1.01-.013-2.264-.219-2.655-.102-.201-.284-.296-.572-.349l-.229-.041c-.102-.094-.091-.338.023-.377a19.448 19.448 0 002.485 0c.093.067.115.283.023.377l-.252.067c-.218.054-.424.109-.503.323-.161.404-.161 1.59-.161 2.655v1.603c0 1.226-.159 2.358-.755 3.112-.596.755-1.455 1.012-2.245 1.012-1.077 0-1.832-.27-2.36-.862-.515-.58-.755-1.524-.755-2.884v-3.424zm10.13.082c0-1.226-.011-1.428-.492-1.509l-.401-.054c-.081-.094-.081-.323.011-.378.802-.107 1.489-.12 2.53-.12 1.088 0 1.879.188 2.394.539.596.417.973 1.13.973 2.02 0 2.048-1.66 2.615-2.564 2.615-.104 0-.195 0-.286-.015-.081-.081-.093-.255-.034-.336 1.041-.244 1.419-1.132 1.419-2.236 0-1.091-.596-2.048-1.637-2.048-.573 0-.585.039-.585.565v5.889c0 1.428.102 1.468.642 1.535l.424.054c.068.096.057.338-.024.391a39.858 39.858 0 00-1.694-.041 24.8 24.8 0 00-1.476.041c-.093-.054-.104-.296-.023-.391l.182-.026c.539-.094.642-.135.642-1.562v-4.933zM9.803 97.662c.115.054.102.336-.023.391a24.12 24.12 0 00-1.397-.041c-.539 0-1.031.013-1.535.041-.093-.055-.138-.31-.023-.391l.309-.068c.458-.079.492-.188.492-1.104v-5.51h-.023c-.309.741-.469 1.145-.687 1.684l-.984 2.371c-.39.944-.961 2.439-1.168 3.073-.047.054-.218.054-.299 0-.195-.728-.687-2.048-.95-2.722l-1.018-2.587a62.173 62.173 0 01-.666-1.819h-.022c-.023.659-.045 1.712-.068 2.277-.023.822-.045 2.02-.045 3.126 0 .888.011 1.104.503 1.199l.378.081c.08.081.08.336-.011.391-.424-.028-.78-.041-1.203-.041-.365 0-.778.013-1.225.041-.102-.068-.102-.325-.034-.391l.195-.028c.549-.08.642-.283.71-1.104.091-.849.114-1.725.172-3.126.045-.916.114-2.033.114-2.857 0-.632-.172-.916-.619-.996l-.389-.082c-.07-.094-.058-.351.045-.391.343.028.653.041 1.077.041.4 0 .801 0 1.225-.041.045.809.344 1.509.63 2.236l1.26 3.113c.091.229.388.903.538 1.212.184-.39.343-.767.596-1.4l1.075-2.587c.367-.89.734-1.684.927-2.574a14.268 14.268 0 002.142 0c.127.054.149.31.034.391l-.378.067c-.503.081-.617.31-.617 1.025 0 1.994.023 3.987.102 5.982.034.903.161.997.528 1.051zm4.465-2.951c-.297 0-.286 0-.39.364l-.469 1.618c-.229.794-.184.835.24.903l.333.067c.08.094.068.338-.023.391-.367-.028-.745-.028-1.215-.041-.377 0-.732.013-1.134.041-.08-.068-.091-.27-.011-.391l.344-.067c.331-.055.458-.175.629-.62.138-.351.322-.916.562-1.644l1.569-4.796c.149-.432.252-.755.218-.984.401-.094.778-.646.801-.646.093 0 .149.041.195.107.184.606.333 1.239.515 1.847l1.65 5.645c.263.903.32.997.905 1.117l.172.041c.091.094.091.323.011.391a23.402 23.402 0 00-1.489-.041c-.492 0-.996.028-1.397.041-.091-.068-.104-.31-.034-.391l.252-.041c.413-.054.447-.135.297-.713l-.538-1.834c-.115-.364-.149-.364-.469-.364zm1.374-.606c.32 0 .367-.028.274-.351l-.481-1.616c-.195-.715-.263-.971-.32-1.065h-.024c-.045.094-.136.432-.343 1.065l-.481 1.575c-.127.391-.091.391.184.391h1.191zm12.357 1.617c0 .404 0 2.061.034 2.371a.404.404 0 01-.39.188c-.182-.283-.515-.741-1.34-1.845l-2.678-3.597c-.745-.984-1.111-1.496-1.306-1.699-.034 0-.034.149-.034.862v2.628c0 1.01.011 2.251.206 2.654.102.203.297.284.583.338l.252.041c.104.094.093.349-.023.39a21.617 21.617 0 00-1.306-.041c-.481 0-.789.015-1.19.041-.091-.067-.114-.296-.023-.39l.252-.068c.218-.041.424-.094.503-.31.149-.417.149-1.59.149-2.654v-3.193c0-1.051.011-1.267-.378-1.658-.125-.12-.447-.229-.606-.27l-.172-.039c-.081-.081-.068-.351.045-.391.435.054 1.065.041 1.351.041.24 0 .515-.013.791-.041.193.58 1.442 2.277 1.843 2.789l1.145 1.455c.481.62 1.546 2.048 1.66 2.129.034-.041.034-.107.034-.323v-2.628c0-1.01-.011-2.249-.218-2.654-.102-.203-.286-.283-.572-.338l-.263-.039c-.104-.094-.093-.351.023-.391.447.028.871.041 1.317.041.492 0 .789-.013 1.202-.041.091.067.114.297.023.391l-.263.067c-.218.041-.413.094-.492.31-.161.417-.161 1.59-.161 2.654v3.22zm4.228-4.582c0-1.293-.011-1.455-.549-1.536l-.24-.026c-.081-.068-.081-.31.011-.377a29.033 29.033 0 012.862-.122c1.088 0 1.868.107 2.703.458 1.374.593 2.348 2.02 2.348 4.028 0 1.496-.63 3.032-2.05 3.882-.814.486-1.798.646-2.841.646-.698 0-1.236-.081-1.66-.081-.435 0-.952.015-1.455.041-.091-.054-.102-.296-.023-.39l.252-.041c.539-.081.642-.122.642-1.549zm1.329 4.407c0 1.308.08 2.007 1.294 2.007 2.038 0 2.954-1.697 2.954-3.974 0-2.668-1.317-3.961-3.229-3.961-.482 0-.848.107-.929.188-.08.081-.091.364-.091.997v4.743zm9.226-.836c-.297 0-.286 0-.39.364l-.469 1.618c-.229.794-.184.835.24.903l.333.067c.08.094.068.338-.023.391-.367-.028-.745-.028-1.215-.041-.377 0-.732.013-1.134.041-.08-.068-.091-.27-.011-.391l.344-.067c.331-.055.458-.175.629-.62.138-.351.322-.916.562-1.644l1.569-4.796c.149-.432.252-.755.218-.984.401-.094.778-.646.801-.646.093 0 .149.041.195.107.184.606.333 1.239.516 1.847l1.648 5.645c.263.903.32.997.905 1.117l.172.041c.091.094.091.323.011.391a23.402 23.402 0 00-1.489-.041c-.492 0-.996.028-1.397.041-.091-.068-.102-.31-.034-.391l.252-.041c.413-.054.447-.135.297-.713l-.538-1.834c-.115-.364-.149-.364-.469-.364zm1.374-.606c.32 0 .367-.028.274-.351l-.481-1.616c-.195-.715-.263-.971-.32-1.065h-.024c-.045.094-.136.432-.343 1.065l-.481 1.575c-.127.391-.091.391.184.391h1.191zm5.765-2.965c0-1.293-.011-1.455-.549-1.522l-.299-.041c-.08-.094-.08-.31.011-.377a25.433 25.433 0 012.634-.122c.893 0 1.673.135 2.176.458.583.364 1.007.997 1.007 1.967 0 1.241-.812 1.86-1.374 2.129-.068.041-.045.148 0 .229.916 1.819 1.489 2.964 2.027 3.49.322.323.478.31.614.323.058.054.005.364.005.364l-1.954.003s-.302-.448-1-1.7c-.31-.567-.63-1.308-.905-1.834-.206-.404-.333-.458-.71-.458-.344 0-.356.015-.356.297v1.725c0 1.428.104 1.468.642 1.549l.252.041c.08.094.068.336-.023.39a29.775 29.775 0 00-1.523-.041c-.503 0-1.018.015-1.546.041-.091-.054-.125-.296-.023-.39l.252-.041c.539-.081.642-.122.642-1.549zm1.328 1.941c0 .432 0 .458.551.458 1.121 0 1.637-.646 1.637-1.926 0-1.065-.585-1.994-1.58-1.994-.596 0-.607.041-.607.659v2.803zm38.893-1.941c0-1.293-.011-1.455-.549-1.522l-.299-.041c-.08-.094-.08-.31.011-.377a25.433 25.433 0 012.634-.122c.893 0 1.673.135 2.176.458.583.364 1.007.997 1.007 1.967 0 1.241-.812 1.86-1.374 2.129-.068.041-.045.148 0 .229.916 1.819 1.489 2.964 2.027 3.49.322.323.478.31.614.323.058.054.005.364.005.364l-1.954.003s-.302-.448-1-1.7c-.31-.567-.63-1.308-.905-1.834-.206-.404-.333-.458-.71-.458-.344 0-.356.015-.356.297v1.725c0 1.428.102 1.468.642 1.549l.252.041c.08.094.068.336-.023.39a29.775 29.775 0 00-1.523-.041c-.503 0-1.02.015-1.546.041-.091-.054-.125-.296-.023-.39l.252-.041c.539-.081.642-.122.642-1.549zm1.328 1.941c0 .432 0 .458.549.458 1.122 0 1.639-.646 1.639-1.926 0-1.065-.585-1.994-1.58-1.994-.596 0-.607.041-.607.659v2.803zm-31.397 2.991c0 1.428.104 1.468.642 1.549l.252.041c.08.094.068.336-.023.391a28.489 28.489 0 00-3.069 0c-.091-.055-.102-.297-.023-.391l.252-.041c.539-.081.642-.122.642-1.549V91.06c0-1.429-.102-1.468-.642-1.549l-.252-.041c-.08-.094-.068-.338.023-.391a27.879 27.879 0 003.069 0c.091.054.102.297.023.391l-.252.041c-.538.081-.642.12-.642 1.549zm11.022-.35c0 .404 0 2.061.034 2.371a.404.404 0 01-.39.188c-.182-.283-.515-.741-1.338-1.845l-2.68-3.597c-.745-.984-1.111-1.496-1.306-1.699-.034 0-.034.149-.034.862v2.628c0 1.01.011 2.251.206 2.654.102.203.297.284.583.338l.252.041c.104.094.093.349-.023.39a21.617 21.617 0 00-1.306-.041c-.481 0-.789.015-1.19.041-.091-.067-.114-.296-.023-.39l.252-.068c.218-.041.424-.094.503-.31.149-.417.149-1.59.149-2.654v-3.193c0-1.051.011-1.267-.378-1.658-.125-.12-.447-.229-.606-.27l-.172-.039c-.08-.081-.068-.351.045-.391.435.054 1.065.041 1.351.041.24 0 .515-.013.791-.041.193.58 1.442 2.277 1.843 2.789l1.145 1.455c.481.62 1.546 2.048 1.66 2.129.034-.041.034-.107.034-.323v-2.628c0-1.01-.011-2.249-.218-2.654-.102-.203-.286-.283-.572-.338l-.263-.039c-.104-.094-.093-.351.023-.391.447.028.871.041 1.317.041.492 0 .789-.013 1.202-.041.091.067.114.297.023.391l-.263.067c-.218.041-.413.094-.492.31-.161.417-.161 1.59-.161 2.654v3.22zm15.671-2.128c0 2.654-1.717 4.635-4.031 4.635-2.587 0-4.077-2.144-4.077-4.541 0-2.75 1.696-4.785 4.099-4.785 2.646 0 4.009 2.238 4.009 4.691m-6.55-.298c0 1.86.676 4.393 2.634 4.393 1.304 0 2.358-1.147 2.358-3.854 0-2.035-.778-4.393-2.599-4.393-1.145 0-2.393.985-2.393 3.854m20.994 2.776c0 1.428.104 1.468.642 1.549l.252.041c.081.094.068.336-.023.391a28.489 28.489 0 00-3.069 0c-.091-.055-.102-.297-.023-.391l.252-.041c.539-.081.642-.122.642-1.549V91.06c0-1.429-.102-1.468-.642-1.549l-.252-.041c-.08-.094-.068-.338.023-.391a27.879 27.879 0 003.069 0c.091.054.104.297.023.391l-.252.041c-.538.081-.642.12-.642 1.549zm5.331-5.012c0-1.428-.102-1.468-.642-1.562l-.182-.028c-.081-.094-.07-.336.023-.39.434.026.973.039 1.476.039h2.188c.732 0 1.397-.013 1.546-.039.045.227.114 1.293.182 1.873-.045.107-.274.135-.365.054-.184-.781-.356-1.119-.721-1.226-.263-.094-.607-.122-.918-.122h-.767c-.492 0-.492.028-.492.796v2.277c0 .349.011.364.274.364h.551c.996 0 1.19-.015 1.27-.593l.081-.458c.091-.096.309-.096.365.013-.011.364-.034.849-.034 1.348 0 .512.023.983.034 1.415-.057.094-.274.094-.365.013l-.081-.539c-.08-.565-.274-.593-1.27-.593h-.551c-.263 0-.274.028-.274.364v1.712c0 .687.023 1.171.195 1.4.136.19.331.297 1.294.297 1.454.028 1.705-.364 2.106-1.455.104-.094.297-.054.365.081-.068.565-.32 1.59-.481 1.954-.503-.028-1.488-.041-2.828-.041h-1.306c-.503 0-1.202.013-1.718.041-.091-.054-.102-.297-.023-.391l.424-.054c.539-.068.642-.107.642-1.536V91.06zm15.26 4.662c0 .404 0 2.061.034 2.371a.403.403 0 01-.388.188c-.184-.283-.516-.741-1.34-1.845l-2.68-3.597c-.745-.984-1.111-1.496-1.306-1.699-.034 0-.034.149-.034.862v2.628c0 1.01.011 2.251.206 2.654.102.203.297.284.583.338l.252.041c.104.094.093.349-.023.39a21.55 21.55 0 00-1.304-.041c-.482 0-.791.015-1.192.041-.091-.067-.114-.296-.023-.39l.252-.068c.218-.041.424-.094.503-.31.149-.417.149-1.59.149-2.654v-3.193c0-1.051.011-1.267-.377-1.658-.127-.12-.447-.229-.607-.27l-.172-.039c-.08-.081-.068-.351.045-.391.435.054 1.065.041 1.351.041.24 0 .516-.013.791-.041.193.58 1.442 2.277 1.843 2.789l1.145 1.455c.481.62 1.546 2.048 1.66 2.129.034-.041.034-.107.034-.323v-2.628c0-1.01-.011-2.249-.216-2.654-.104-.203-.287-.283-.573-.338l-.263-.039c-.104-.094-.093-.351.023-.391.447.028.871.041 1.317.041.492 0 .789-.013 1.202-.041.091.067.115.297.023.391l-.263.067c-.218.041-.413.094-.492.31-.161.417-.161 1.59-.161 2.654v3.22zm6.533-5.471c0-.567-.011-.593-.309-.593h-.642c-1.054 0-1.363.148-1.787 1.239-.08.081-.32.041-.367-.094.195-.728.367-1.562.447-2.035.024-.039.07-.054.127-.054.045 0 .091.015.114.054.058.338.218.351.997.351h4.673c.56 0 .732-.041.869-.351.047-.026.093-.054.138-.054.068 0 .127.028.149.068-.115.552-.206 1.71-.172 2.142-.057.107-.252.135-.356.041-.148-1.051-.365-1.307-1.592-1.307h-.653c-.297 0-.309.026-.309.593v5.821c0 1.428.102 1.468.642 1.536l.413.054c.08.094.068.336-.024.39a42.134 42.134 0 00-1.683-.039c-.503 0-1.043.013-1.775.039-.091-.054-.102-.323-.023-.39l.481-.068c.539-.054.642-.094.642-1.522zm8.284 4.46c-.299 0-.287 0-.39.364l-.469 1.618c-.229.794-.184.835.24.903l.331.067c.081.094.07.338-.023.391-.365-.028-.744-.028-1.213-.041-.378 0-.732.013-1.134.041-.08-.068-.091-.27-.011-.391l.344-.067c.331-.055.456-.175.629-.62.138-.351.322-.916.562-1.644l1.569-4.796c.148-.432.252-.755.216-.984.401-.094.78-.646.802-.646.093 0 .149.041.195.107.184.606.333 1.239.515 1.847l1.65 5.645c.263.903.32.997.905 1.117l.172.041c.091.094.091.323.011.391a23.49 23.49 0 00-1.489-.041c-.492 0-.996.028-1.397.041-.093-.068-.104-.31-.034-.391l.252-.041c.411-.054.447-.135.297-.713l-.538-1.834c-.115-.364-.149-.364-.469-.364zm1.374-.606c.32 0 .367-.028.274-.351l-.481-1.616c-.195-.715-.263-.971-.322-1.065h-.023c-.045.094-.136.432-.343 1.065l-.481 1.575c-.127.391-.093.391.184.391h1.192zm8.168 1.684c0 .674.023 1.16.195 1.387.138.19.32.297 1.236.297 1.272 0 1.455-.067 1.981-1.455.115-.067.297-.026.356.081-.091.565-.344 1.59-.481 1.954-.482-.028-1.467-.041-2.75-.041h-1.19c-.583 0-1.156.013-1.637.041-.091-.054-.127-.323-.023-.391l.343-.067c.539-.081.642-.122.642-1.524V91.06c0-1.402-.102-1.442-.642-1.536l-.32-.054c-.08-.067-.08-.336.023-.39.572.026 1.088.039 1.614.039.503 0 1.02-.013 1.523-.039.102.054.114.323.023.39l-.252.054c-.538.094-.642.135-.642 1.536v4.729zM78.152 55.991a26.57 26.57 0 00-4.185.008l1.809 16.858h.731zm.132-1.401a27.495 27.495 0 00-2.175-.084c-.773 0-1.536.031-2.293.094L67.94 0l15.475 2.058zm5.454 2.424a26.568 26.568 0 00-4.094-.867L77.888 73.01l.715.153zm.423-1.343a28.192 28.192 0 00-2.11-.539 28.489 28.489 0 00-2.261-.387L85.46.124l14.703 5.249zm-11.686.488a26.862 26.862 0 00-4.091.884l5.295 16.106.715-.153zm-.164-1.398a27.8 27.8 0 00-4.367.944L50.78 3.541l15.564-1.223zm-5.353 2.75a27.238 27.238 0 00-3.817 1.718l8.546 14.645.668-.299zm-.453-1.333a27.916 27.916 0 00-4.073 1.835L34.739 10.592l14.965-4.45zm-4.659 3.808a26.983 26.983 0 00-3.373 2.478l11.421 12.533.59-.432zm-.721-1.208a27.982 27.982 0 00-3.599 2.648L20.529 20.841l13.703-7.479zm-3.76 4.698a26.749 26.749 0 00-2.779 3.13l13.787 9.868.486-.546zm-.958-1.032c-.52.499-1.023 1.02-1.512 1.567a28.437 28.437 0 00-1.454 1.774L8.777 33.837l11.835-10.182zm-2.695 5.381a27.096 27.096 0 00-2.064 3.641l15.548 6.766.361-.635zm-1.152-.808a27.816 27.816 0 00-2.202 3.886L0 49.001l9.444-12.429zm36.428-7.835a26.248 26.248 0 00-1.834-.906 26.73 26.73 0 00-1.99-.799l-5.243 16.124.669.299zm.694-1.225a28.138 28.138 0 00-4.082-1.819L102.567 3.91l13.28 8.208zm3.986 4.443a26.448 26.448 0 00-3.381-2.465l-8.499 14.671.59.432zm.934-1.052a28.137 28.137 0 00-1.705-1.354 27.272 27.272 0 00-1.905-1.277l27.514-47.527 11.27 10.804zm2.969 5.178a26.754 26.754 0 00-2.792-3.118L83.401 75.977l.487.546zm1.134-.834a27.898 27.898 0 00-2.981-3.328l36.843-40.722 8.762 12.92zm1.821 5.684a26.514 26.514 0 00-.944-1.814 26.335 26.335 0 00-1.134-1.819l-13.756 9.912.362.635zm1.283-.578a27.709 27.709 0 00-2.218-3.879l44.545-32.117 5.865 14.468z" fill="#C39122"/></svg>